<?xml version="1.0" encoding="iso-8859-1"?>
<!-- Uploaded to: SVG Repo, www.svgrepo.com, Generator: SVG Repo Mixer Tools -->
<svg height="800px" width="800px" version="1.1" id="Layer_1" xmlns="http://www.w3.org/2000/svg" xmlns:xlink="http://www.w3.org/1999/xlink" 
	 viewBox="0 0 512 512" xml:space="preserve">
<polygon style="fill:#F7A872;" points="411.585,202.852 385.573,211.346 308.999,236.339 302.419,238.487 227.219,263.014 
	211.617,268.108 176.644,279.524 135.816,252.003 142.396,195.265 339.688,98.387 363.195,86.848 364.251,86.333 408.504,125.737 
	"/>
<polygon style="fill:#E09461;" points="411.585,202.852 364.251,86.333 363.195,86.848 339.688,98.387 339.689,98.391 
	142.396,195.265 154.364,224.714 365.14,132.136 395.355,208.152 "/>
<path style="fill:#E88158;" d="M340.449,476.595H299.94l-31.83-126.131l-31.83,126.131H195.77l42.375-167.88l5.905-23.409
	c6.862,4.64,15.148,7.353,24.06,7.353c8.912,0,17.198-2.713,24.06-7.353l5.905,23.409L340.449,476.595z"/>
<path style="fill:#D37250;" d="M298.074,308.715c-1.817,1.78-3.793,3.388-5.905,4.812v0.012c-6.862,4.64-15.148,7.353-24.06,7.353
	c-8.912,0-17.198-2.713-24.06-7.353v-0.012c-2.111-1.424-4.088-3.032-5.905-4.812l5.905-23.409c6.862,4.64,15.148,7.353,24.06,7.353
	c8.912,0,17.198-2.713,24.06-7.353L298.074,308.715z"/>
<polygon style="fill:#F7A872;" points="138.155,273.152 56.013,306.518 55.854,306.125 28.185,297.815 37.354,260.608 
	37.133,260.055 99.198,234.829 99.677,234.633 119.824,227.367 "/>
<polygon style="fill:#E09461;" points="147.389,239.133 30.993,286.418 37.354,260.608 37.133,260.055 119.824,227.367 "/>
<path style="fill:#5DACD8;" d="M55.854,306.125c3.916,9.882-0.859,21.102-10.729,25.103c-9.931,4.039-21.237-0.737-25.275-10.667
	L1.424,275.203C0.454,272.81,0,270.342,0,267.924c0-7.66,4.566-14.915,12.091-17.984c9.919-4.026,21.237,0.749,25.263,10.667
	L55.854,306.125z"/>
<path style="fill:#E88158;" d="M169.978,296.731l-26.963,10.956c-6.469,2.629-13.846-0.485-16.474-6.955l-7.97-19.624
	l-18.561-45.689l-0.319-0.786h-0.014l-7.972-19.626c-2.628-6.469,0.486-13.844,6.955-16.473l26.975-10.958
	c6.469-2.628,13.844,0.486,16.472,6.955l8.291,20.41l26.532,65.315C179.56,286.728,176.446,294.103,169.978,296.731z"/>
<path style="fill:#D37250;" d="M150.399,214.943l-50.391,20.476l-0.319-0.786h-0.012l-7.972-19.626
	c-2.628-6.469,0.486-13.844,6.955-16.473l26.975-10.958c6.469-2.628,13.844,0.486,16.472,6.955L150.399,214.943z"/>
<path style="fill:#E88158;" d="M490.966,195.373l-59.26,24.086c-6.339,2.577-13.568-0.474-16.143-6.814l-44.241-108.906
	l-11.05-27.203c-2.575-6.339,0.476-13.566,6.815-16.141l59.256-24.076c6.338-2.575,13.563,0.474,16.14,6.812l1.264,3.109
	l9.784,24.085l42.989,105.803l1.262,3.111C500.353,185.576,497.303,192.798,490.966,195.373z"/>
<path style="fill:#D37250;" d="M453.531,70.325l-82.209,33.414l-11.05-27.203c-2.575-6.339,0.476-13.566,6.815-16.141l59.256-24.076
	c6.338-2.575,13.563,0.474,16.14,6.812l1.264,3.109L453.531,70.325z"/>
<path style="fill:#8ED7E0;" d="M505.873,96.668c11.109,27.325,6.592,57.106-9.354,79.459L443.747,46.241
	C470.765,51.139,494.776,69.343,505.873,96.668z"/>
<path style="fill:#E09461;" d="M302.419,238.487l-75.2,24.526l-15.602,5.094c-2.369-5.671-3.683-11.907-3.683-18.438
	c0-26.454,21.445-47.899,47.899-47.899C278.433,201.771,297.386,217.435,302.419,238.487z"/>
<path style="fill:#5DACD8;" d="M268.109,201.771c26.452,0,47.899,21.447,47.899,47.899c0,16.523-8.371,31.089-21.091,39.693v0.014
	c-7.645,5.17-16.878,8.193-26.808,8.193c-9.93,0-19.162-3.022-26.808-8.193v-0.014c-12.72-8.603-21.091-23.17-21.091-39.693
	C220.21,223.218,241.657,201.771,268.109,201.771z"/>
<path style="fill:#4C9CBF;" d="M268.109,228.777c11.538,0,20.893,9.355,20.893,20.893c0,7.207-3.651,13.561-9.199,17.313v0.006
	c-3.335,2.255-7.362,3.573-11.694,3.573c-4.331,0-8.358-1.318-11.694-3.573v-0.006c-5.549-3.753-9.199-10.106-9.199-17.313
	C247.216,238.133,256.571,228.777,268.109,228.777z"/>
</svg>